<?xml version="1.0" standalone="no"?><!DOCTYPE svg PUBLIC "-//W3C//DTD SVG 1.1//EN" "http://www.w3.org/Graphics/SVG/1.1/DTD/svg11.dtd"><svg t="1516263187387" class="icon" style="" viewBox="0 0 1024 1024" version="1.1" xmlns="http://www.w3.org/2000/svg" p-id="3774" xmlns:xlink="http://www.w3.org/1999/xlink" width="128" height="128"><defs><style type="text/css"></style></defs><path d="M512 128c211.2 0 384 172.8 384 384s-172.8 384-384 384-384-172.8-384-384 172.8-384 384-384m0-64C262.4 64 64 262.4 64 512s198.4 448 448 448 448-198.4 448-448-198.4-448-448-448z" fill="#2781d7" p-id="3775"></path><path d="M320 512m-32 0a32 32 0 1 0 64 0 32 32 0 1 0-64 0Z" fill="#2781d7" p-id="3776"></path><path d="M704 512m-32 0a32 32 0 1 0 64 0 32 32 0 1 0-64 0Z" fill="#2781d7" p-id="3777"></path><path d="M512 320m-32 0a32 32 0 1 0 64 0 32 32 0 1 0-64 0Z" fill="#2781d7" p-id="3778"></path><path d="M512 704m-32 0a32 32 0 1 0 64 0 32 32 0 1 0-64 0Z" fill="#2781d7" p-id="3779"></path><path d="M320 480h384v64H320z" fill="#2781d7" p-id="3780"></path><path d="M480 320h64v384h-64z" fill="#2781d7" p-id="3781"></path></svg>