<?xml version="1.0" standalone="no"?><!DOCTYPE svg PUBLIC "-//W3C//DTD SVG 1.1//EN" "http://www.w3.org/Graphics/SVG/1.1/DTD/svg11.dtd"><svg t="1516074415594" class="icon" style="" viewBox="0 0 1024 1024" version="1.1" xmlns="http://www.w3.org/2000/svg" p-id="598" data-spm-anchor-id="a313x.7781069.0.i2" xmlns:xlink="http://www.w3.org/1999/xlink" width="128" height="128"><defs><style type="text/css"></style></defs><path d="M928.312889 267.477333C792.078222 436.906667 655.957333 519.111111 519.651556 519.111111c-136.832 0-278.584889-82.773333-425.031112-252.913778a49.777778 49.777778 0 1 0-75.463111 64.938667C182.826667 521.287111 349.596444 618.666667 519.637333 618.666667c170.609778 0 332.785778-97.934222 486.257778-288.810667a49.777778 49.777778 0 0 0-77.582222-62.378667z" p-id="599" fill="#2c2c2c"></path><path d="M162.730667 469.447111l-94.819556 109.710222a35.555556 35.555556 0 1 0 53.802667 46.506667l94.819555-109.710222a35.555556 35.555556 0 0 0-53.802666-46.506667zM354.247111 598.186667l-37.930667 151.708444a35.555556 35.555556 0 0 0 68.992 17.251556l37.930667-151.708445a35.555556 35.555556 0 0 0-68.992-17.251555zM629.575111 604.387556l53.333333 151.694222a35.555556 35.555556 0 0 0 67.072-23.580445l-53.333333-151.694222a35.555556 35.555556 0 0 0-67.072 23.580445zM823.111111 475.164444l109.710222 109.724445a35.555556 35.555556 0 0 0 50.289778-50.289778l-109.710222-109.710222a35.555556 35.555556 0 0 0-50.289778 50.289778z" p-id="600" fill="#2c2c2c"></path></svg>