<?xml version="1.0" standalone="no"?><!DOCTYPE svg PUBLIC "-//W3C//DTD SVG 1.1//EN" "http://www.w3.org/Graphics/SVG/1.1/DTD/svg11.dtd"><svg t="1513588868289" class="icon" style="" viewBox="0 0 1024 1024" version="1.1" xmlns="http://www.w3.org/2000/svg" p-id="3384" xmlns:xlink="http://www.w3.org/1999/xlink" width="32" height="32"><defs><style type="text/css"></style></defs><path d="M511.232 28.48256C245.11744 28.48256 29.44 244.16 29.44 510.27456c0 266.11584 215.67744 481.792 481.792 481.792 266.11328 0 481.792-215.67616 481.792-481.792C993.02528 244.16 777.34656 28.48256 511.232 28.48256zM511.232 953.52448c-244.3968 0-443.24992-198.85312-443.24992-443.24992S266.8352 67.02592 511.232 67.02592c244.39424 0 443.24736 198.85312 443.24736 443.24864S755.62624 953.52448 511.232 953.52448z" p-id="3385" fill="#1296db"></path><path d="M226.14016 491.00288l572.74368 0 0 38.54592-572.74368 0 0-38.54592Z" p-id="3386" fill="#1296db"></path></svg>