<?xml version="1.0" standalone="no"?><!DOCTYPE svg PUBLIC "-//W3C//DTD SVG 1.1//EN" "http://www.w3.org/Graphics/SVG/1.1/DTD/svg11.dtd"><svg t="1513753640988" class="icon" style="" viewBox="0 0 1024 1024" version="1.1" xmlns="http://www.w3.org/2000/svg" p-id="1562" xmlns:xlink="http://www.w3.org/1999/xlink" width="32" height="32"><defs><style type="text/css"></style></defs><path d="M949.73952 167.296c19.34848 0 34.432 2.85184 45.09184 8.51968 10.7776 5.68832 18.33984 12.66176 22.90176 21.04832 4.54144 8.40192 6.51776 17.20832 6.24128 26.752-0.39936 9.51808-1.5616 17.62816-3.68128 24.448l-12.95872 42.10176c-6.53824 21.18144-14.08 44.5184-22.31808 69.95968a15400.35584 15400.35584 0 0 0-24.30976 75.67872c-7.9616 25.02144-14.08 44.8-18.2016 59.1616-8.96 30.29504-20.48 51.35872-34.2784 63.13984-13.7984 11.8016-30.83776 17.6384-50.9184 17.6384H312.4736l15.47776 102.39488h523.22816c33.16224 0 49.80224 15.49824 49.80224 46.65856 0 15.22176-3.3024 28.29824-9.84064 39.23968-6.6816 10.96192-19.59936 16.50176-38.95808 16.50176H308.352c-13.96224 0-25.48224-3.42016-34.8416-10.24-9.3952-6.81984-17.0752-15.77984-23.35744-26.72128-6.24128-10.96192-11.21792-22.90176-15.04256-35.84a361.57952 361.57952 0 0 1-8.84224-36.41856c-0.72192-4.54144-2.56-15.49824-5.67808-32.99328l-11.40224-65.41824-15.04256-87.61856-16.66048-97.25952c-13.07648-76.67712-28.01664-161.98656-44.65664-255.99488H55.04c-10.35776 0-19.04128-2.8416-26.01984-8.54016a75.11552 75.11552 0 0 1-17.08032-20.48 81.53088 81.53088 0 0 1-9.35936-25.6C0.86016 68.29568 0 59.91936 0 52.38784 0 37.1712 4.67968 24.64256 14.08 14.82752 23.36256 5.0176 35.99872 0.03584 51.92192 0.03584h104.82176c13.7984 0 24.89856 2.26816 33.28 6.81984 8.25856 4.57216 14.78144 10.24 19.61984 17.08032 4.8384 6.81984 8.40192 14.06976 10.39872 21.6064L225.28 64.89088c1.28 6.09792 2.71872 14.63808 4.1216 25.6l4.14208 33.57184c2.14016 13.63968 4.10112 27.98592 6.26176 43.22816h709.93408z m-174.34112 646.23616c13.06112 0 25.71776 2.69824 37.82144 7.9616 12.07808 5.25824 22.48192 12.66176 31.11936 22.1952 8.69888 9.51808 15.68256 20.59776 20.78208 33.54112 5.25824 12.95872 7.81824 26.61888 7.81824 40.96 0 14.38208-2.56 28.02176-7.81824 40.96-5.09952 12.95872-12.07808 24.05888-20.78208 33.58208-8.64256 9.53856-19.04128 17.05984-31.11936 22.7584a88.2688 88.2688 0 0 1-37.82144 8.51456c-13.2608 0-25.6-2.8416-37.42208-8.51456a99.17952 99.17952 0 0 1-30.58176-22.7584c-8.6784-9.51808-15.6416-20.61824-20.7616-33.58208-5.25824-12.93824-7.81824-26.57792-7.81824-40.96 0-14.34112 2.56-28.00128 7.81824-40.96 5.12-12.93824 12.07808-24.01792 20.7616-33.54112 8.69888-9.53344 18.78016-16.93696 30.58176-22.1952a90.58816 90.58816 0 0 1 37.42208-7.9616m-431.78496-2.28352c13.0816 0 25.6 2.69824 37.25824 7.9616a96.60416 96.60416 0 0 1 31.16032 22.17472c9.07776 9.55904 15.91808 20.63872 20.7616 33.58208s7.26016 26.5984 7.26016 40.96c0 14.38208-2.42176 28.02176-7.26016 40.96s-11.67872 24.0384-20.7616 33.5616a104.79104 104.79104 0 0 1-31.16032 22.7584 84.3776 84.3776 0 0 1-37.25824 8.53504c-13.94176 0-26.46016-2.86208-37.98016-8.53504a107.77088 107.77088 0 0 1-30.56128-22.7584c-8.98048-9.51808-15.93856-20.61824-20.77696-33.5616-4.81792-12.93824-7.26016-26.57792-7.26016-40.96 0-14.3616 2.44224-28.02176 7.26016-40.96a99.0976 99.0976 0 0 1 20.77696-33.58208c8.96-9.51296 19.17952-16.896 30.56128-22.17472 11.52-5.25824 24.0384-7.9616 37.98016-7.9616" fill="#8a8a8a" p-id="1563"></path></svg>