<?xml version="1.0" standalone="no"?><!DOCTYPE svg PUBLIC "-//W3C//DTD SVG 1.1//EN" "http://www.w3.org/Graphics/SVG/1.1/DTD/svg11.dtd"><svg t="1513322019514" class="icon" style="" viewBox="0 0 1024 1024" version="1.1" xmlns="http://www.w3.org/2000/svg" p-id="11134" xmlns:xlink="http://www.w3.org/1999/xlink" width="32" height="32"><defs><style type="text/css"></style></defs><path d="M532.474275 1024C250.885641 1024 20.482694 793.597053 20.482694 512.008419S250.885641 0 532.474275 0C734.725093 0 921.603367 122.913001 1000.958022 307.198316l-117.760758 69.117517-330.231876 197.132249-71.676801-120.320042 322.554023-191.946331C734.725093 186.895112 634.879327 140.794317 529.914991 140.794317c-204.793265 0-371.197264 166.403999-371.197264 371.214102s166.403999 371.197264 371.197264 371.197264c79.354654 0 151.048292-28.168966 217.606524-69.117517 33.287535-23.03356 74.236085 33.287535 74.236086 33.287535l46.083956 53.76181c-92.151076 79.337817-212.471118 122.862489-335.367282 122.862489z" p-id="11135" fill="#bfbfbf"></path><path d="M890.875117 714.242399l-81.913938-140.794317 140.794317-84.473223s53.76181 87.032507 53.76181 130.55718c0 40.948551-112.642189 94.710361-112.642189 94.71036z" p-id="11136" fill="#bfbfbf"></path></svg>