<?xml version="1.0" standalone="no"?><!DOCTYPE svg PUBLIC "-//W3C//DTD SVG 1.1//EN" "http://www.w3.org/Graphics/SVG/1.1/DTD/svg11.dtd"><svg t="1513319351634" class="icon" style="" viewBox="0 0 1024 1024" version="1.1" xmlns="http://www.w3.org/2000/svg" p-id="8797" xmlns:xlink="http://www.w3.org/1999/xlink" width="32" height="32"><defs><style type="text/css"></style></defs><path d="M915.377378 341.46373c-22.050517-52.174142-53.611386-99.025978-93.805303-139.252494-40.195835-40.228434-87.012195-71.81615-139.147985-93.885843-53.993948-22.85591-111.333154-34.444944-170.42409-34.444944-59.090936 0-116.429184 11.589034-170.42409 34.444944-52.13579 22.069693-98.95215 53.657408-139.147985 93.885843-40.194876 40.226517-71.755745 87.078352-93.805303 139.252494C85.788764 395.494112 74.210277 452.870712 74.210277 512.000959c0 59.129288 11.578487 116.505888 34.412345 170.53627 22.049558 52.174142 53.610427 99.02406 93.805303 139.251536 40.195835 40.227476 87.012195 71.815191 139.147985 93.885843 53.993948 22.85591 111.332195 34.444944 170.423131 34.444944 59.091895 0 116.429184-11.589034 170.42409-34.444944 52.13579-22.069693 98.95215-53.657408 139.147985-93.885843 40.193918-40.227476 71.755745-87.078352 93.805303-139.251536 22.834816-54.030382 34.412345-111.406981 34.412345-170.53627C949.789723 452.870712 938.212195 395.494112 915.377378 341.46373zM861.502322 659.768569c-19.10412 45.203655-46.458727 85.805064-81.304449 120.679551-3.347176 3.350052-6.763386 6.60806-10.215071 9.819086-25.214562-55.121498-123.401588-165.325184-258.993378-165.325184-141.205573 0-235.25633 106.140285-257.986637 164.380764-3.104599-2.909004-6.182352-5.852524-9.201618-8.874667-34.845723-34.873528-62.20033-75.475895-81.304449-120.679551-19.773363-46.785678-29.798592-96.502412-29.798592-147.76761 0-51.266157 10.026187-100.981933 29.798592-147.768569 19.10412-45.203655 46.458727-85.806022 81.304449-120.680509 34.843805-34.872569 75.410697-62.247311 120.574082-81.365813 46.740614-19.785828 96.408449-29.817768 147.62379-29.817768s100.883176 10.03194 147.62379 29.817768c45.163386 19.117543 85.730277 46.493243 120.574082 81.365813 34.845723 34.873528 62.20033 75.476854 81.304449 120.680509 19.773363 46.786637 29.798592 96.502412 29.798592 147.768569C891.301873 563.266157 881.275685 612.982891 861.502322 659.768569z" p-id="8798" fill="#1296db"></path><path d="M512.488989 304.910382c-75.361798 0-145.458816 64.882097-145.458816 144.92764 0 80.033079 70.097019 144.929558 145.458816 144.929558 75.356045 0 142.453933-64.897438 142.453933-144.929558C654.942921 369.792479 587.845034 304.910382 512.488989 304.910382z" p-id="8799" fill="#1296db"></path></svg>